<?xml version="1.0" standalone="no"?><!DOCTYPE svg PUBLIC "-//W3C//DTD SVG 1.1//EN"
        "http://www.w3.org/Graphics/SVG/1.1/DTD/svg11.dtd">
<svg t="1548384030388" class="icon" style="" viewBox="0 0 1025 1024" version="1.1" xmlns="http://www.w3.org/2000/svg"
     p-id="10973" xmlns:xlink="http://www.w3.org/1999/xlink" width="200.1953125" height="200">
    <defs>
        <style type="text/css"></style>
    </defs>
    <path d="M1014.272 902.4l-97.024-97.024c27.52-37.248 44.352-82.816 44.352-132.608 0-89.216-52.544-165.568-128-201.6l0-278.4c0-70.656-57.344-128-128-128l-576 0c-70.656 0-128 57.344-128 128l0 576c0 70.656 57.344 128 128 128 0 0 602.56 0 608 0 49.792 0 95.36-16.832 132.608-44.288l97.024 97.024c12.992 12.992 34.048 12.992 47.04 0S1027.264 915.392 1014.272 902.4zM225.536 256.768l384 0c17.664 0 32 14.336 32 32s-14.336 32-32 32l-384 0c-17.664 0-32-14.336-32-32S207.872 256.768 225.536 256.768zM353.536 704.768l-128 0c-17.664 0-32-14.336-32-32s14.336-32 32-32l128 0c17.664 0 32 14.336 32 32S371.264 704.768 353.536 704.768zM417.536 512.768l-192 0c-17.664 0-32-14.336-32-32s14.336-32 32-32l192 0c17.664 0 32 14.336 32 32S435.264 512.768 417.536 512.768zM577.536 672.768c0-88.384 71.616-160 160-160s160 71.616 160 160-71.616 160-160 160S577.536 761.152 577.536 672.768z"
          p-id="10974"></path>
</svg>