<?xml version="1.0" standalone="no"?><!DOCTYPE svg PUBLIC "-//W3C//DTD SVG 1.1//EN"
        "http://www.w3.org/Graphics/SVG/1.1/DTD/svg11.dtd">
<svg t="1548383975152" class="icon" style="" viewBox="0 0 1024 1024" version="1.1" xmlns="http://www.w3.org/2000/svg"
     p-id="8973" xmlns:xlink="http://www.w3.org/1999/xlink" width="200" height="200">
    <defs>
        <style type="text/css"></style>
    </defs>
    <path d="M0.499902 124.275727a511.400117 123.675845 0 1 0 1022.800235 0 511.400117 123.675845 0 1 0-1022.800235 0Z"
          p-id="8974"></path>
    <path d="M511.90002 248.651435c-136.673306 0-265.048233-12.897481-361.72935-36.292911C53.289592 188.863113 0 157.669205 0 124.275727s53.289592-64.587385 150.17067-87.982815C246.851787 12.997461 375.226714 0 511.90002 0s265.048233 12.897481 361.729349 36.292912c96.881078 23.495411 150.17067 54.689318 150.17067 87.982815s-53.289592 64.587385-150.17067 87.982816c-96.681117 23.395431-225.056044 36.392892-361.729349 36.392892zM511.90002 1.099785C230.155048 1.099785 0.999805 56.388987 0.999805 124.275727c0 67.986721 229.155243 123.275923 510.900215 123.275923s511.000195-55.289201 511.000195-123.275923C1022.900215 56.388987 793.644991 1.099785 511.90002 1.099785zM914.621363 311.239211c-93.681703 26.594806-239.253271 43.691467-402.721343 43.691467s-309.139621-17.096661-402.721344-43.691467C41.191955 330.535442 0.599883 354.930678 0.599883 381.425503c0 62.987698 228.955282 113.877758 511.400117 113.877758s511.500098-50.990041 511.500098-113.877758c-0.09998-26.494825-40.692052-50.890061-108.878735-70.186292z"
          p-id="8975"></path>
    <path d="M511.90002 495.903144c-136.673306 0-265.048233-11.897676-361.72935-33.393478C53.289592 440.913884 0 412.119508 0 381.425503c0-25.894942 37.692638-50.390158 109.078696-70.686194h0.199961c97.680922 27.794571 244.452255 43.691467 402.621363 43.691466s304.840461-15.896895 402.621363-43.691466h0.19996c71.286077 20.296036 109.078696 44.791252 109.078696 70.686194 0 30.694005-53.289592 59.388401-150.17067 80.984183-96.681117 21.595782-225.056044 33.493458-361.729349 33.493458zM109.178676 311.739113c-34.393283 9.798086-61.188049 20.695958-79.584456 32.393674-18.99629 11.997657-28.594415 24.595196-28.594415 37.292716 0 62.487795 229.255224 113.477836 511.000195 113.477836s510.900215-50.890061 510.900215-113.477836c0-12.7975-9.598125-25.29506-28.594415-37.392697-18.396407-11.697715-45.191174-22.495606-79.584457-32.393673-97.880883 27.794571-244.552236 43.691467-402.821323 43.691466s-304.940441-15.896895-402.721344-43.591486z"
          p-id="8976"></path>
    <path d="M914.621363 575.787541c-93.681703 26.594806-239.253271 43.691467-402.721343 43.691467s-309.139621-17.096661-402.721344-43.691467C41.091974 595.183753 0.499902 619.578988 0.499902 645.973833c0 62.987698 228.955282 113.877758 511.400118 113.877758s511.500098-50.990041 511.500097-113.877758c0-26.394845-40.592072-50.79008-108.778754-70.186292z"
          p-id="8977"></path>
    <path d="M511.90002 760.551455c-136.673306 0-265.048233-11.897676-361.72935-33.393478C53.289592 705.562195 0 676.667838 0 645.973833c0-25.894942 37.692638-50.390158 109.078696-70.686194h0.199961C206.959578 603.082211 353.630931 618.979106 511.90002 618.979106s304.840461-15.896895 402.621363-43.691467h0.19996c71.286077 20.296036 109.078696 44.791252 109.078696 70.686194 0 30.694005-53.289592 59.388401-150.17067 80.984183-96.681117 21.695763-225.056044 33.593439-361.729349 33.593439zM109.178676 576.287444C74.685413 586.185511 47.990627 596.983402 29.59422 608.681117 10.59793 620.678774 0.999805 633.276313 0.999805 645.973833c0 62.487795 229.255224 113.477836 511.000195 113.477837s510.900215-50.890061 510.900215-113.477837c0-12.7975-9.598125-25.29506-28.594415-37.392697-18.396407-11.697715-45.191174-22.495606-79.584457-32.393673C816.840461 604.082015 670.169108 619.97891 511.90002 619.97891s-304.940441-15.896895-402.721344-43.691466z"
          p-id="8978"></path>
    <path d="M914.621363 839.236087C820.93966 865.830892 675.368092 882.927553 511.90002 882.927553s-309.139621-16.99668-402.721344-43.691466C41.191955 858.532318 0.599883 882.927553 0.599883 909.422378c0 62.987698 228.955282 113.877758 511.400117 113.877759s511.500098-50.990041 511.500098-113.877759c-0.09998-26.394845-40.692052-50.79008-108.878735-70.186291z"
          p-id="8979"></path>
    <path d="M511.90002 1024c-136.673306 0-265.048233-11.897676-361.72935-33.393478C53.289592 969.01074 0 940.116384 0 909.422378c0-25.894942 37.692638-50.390158 109.078696-70.686194h0.199961c97.680922 27.794571 244.452255 43.691467 402.621363 43.691467s304.840461-15.896895 402.621363-43.691467h0.19996c71.286077 20.296036 109.078696 44.791252 109.078696 70.686194 0 30.694005-53.289592 59.388401-150.17067 80.984183-96.681117 21.695763-225.056044 33.593439-361.729349 33.593439zM109.178676 839.735989c-34.393283 9.798086-61.188049 20.695958-79.584456 32.393673-18.99629 11.997657-28.594415 24.595196-28.594415 37.292716C0.999805 972.010154 230.255028 1022.900215 512 1022.900215s510.900215-50.890061 510.900215-113.477837c0-12.7975-9.598125-25.29506-28.594415-37.392696-18.396407-11.697715-45.191174-22.495606-79.584457-32.393673-97.880883 27.794571-244.552236 43.791447-402.821323 43.791447s-304.940441-15.996876-402.721344-43.691467z"
          p-id="8980"></path>
</svg>